'{

	TitleName   = Main Theme
	TitleNameJ  = メインテーマ
	GameName    = Space Harrier
	GameNameJ   = はりあーでっせ
	SystemName  = Arcade
	SystemNameJ = アーケード
	Composer    = Hirosi Kawaguchi
	ComposerJ   = 川口博史
	ReleaseDate = 1985-10-02
	Converted   = Fujix
	Notes       =
	Format      = XGM

}

'@ N 000 "INTRO1"
   AR  DR  SR  RR  SL  TL  KS  ML  DT  AM  SSG-EG
'@ 031,006,000,000,015,027,000,000,000,000,000
'@ 031,031,000,000,000,031,000,000,000,000,000
'@ 031,031,000,000,000,024,000,000,000,000,000
'@ 031,031,000,001,000,014,000,000,000,000,000
   ALG FB
'@ 000,006


'@ N 01 "INTRO2"
   AR  DR  SR  RR  SL  TL  KS  ML  DT  AM  SSG-EG
'@ 031,006,000,000,015,027,000,000,000,000,000
'@ 031,031,000,000,000,031,000,000,000,000,000
'@ 031,031,000,000,000,024,000,000,000,000,000
'@ 031,031,000,008,000,014,002,000,000,000,000
   ALG FB
'@ 000,006

'@ N 02 "MAIN"
   AR  DR  SR  RR  SL  TL  KS  ML  DT  AM  SSG-EG
'@ 031,000,000,015,000,021,003,002,005,000,000
'@ 031,003,000,015,002,018,003,004,004,000,000
'@ 031,003,000,015,002,018,003,003,002,000,000
'@ 031,003,000,015,002,012,003,002,004,000,000
   ALG FB
'@ 005,006

'@ N 03 "MAIN 2"
   AR  DR  SR  RR  SL  TL  KS  ML  DT  AM  SSG-EG
'@ 031,000,000,015,000,021,003,002,005,000,000
'@ 024,000,000,000,000,022,003,004,004,000,000
'@ 024,000,000,000,000,022,003,003,002,000,000
'@ 024,000,000,000,000,017,003,002,004,000,000
   ALG FB
'@ 005,006

'@ N 04 "MAIN 8va"
   AR  DR  SR  RR  SL  TL  KS  ML  DT  AM  SSG-EG
'@ 031,000,000,015,000,021,003,002,005,000,000
'@ 024,003,000,000,002,016,003,004,004,000,000
'@ 024,003,000,000,002,017,003,003,002,000,000
'@ 024,003,000,000,002,011,003,002,004,000,000
   ALG FB
'@ 005,006

'@ N 05 "SUB"
   AR  DR  SR  RR  SL  TL  KS  ML  DT  AM  SSG-EG
'@ 031,006,000,000,015,027,000,000,000,000,000
'@ 031,031,000,000,000,031,000,000,000,000,000
'@ 031,031,000,000,000,024,000,000,000,000,000
'@ 031,031,000,001,000,017,003,000,000,000,000
   ALG FB
'@ 000,006

'@ N 06 "PART D"
   AR  DR  SR  RR  SL  TL  KS  ML  DT  AM  SSG-EG
'@ 031,006,000,000,015,027,000,000,000,000,000
'@ 031,031,000,000,000,031,000,000,000,000,000
'@ 031,031,000,000,000,024,000,000,000,000,000
'@ 031,031,005,007,001,004,000,000,000,000,000
   ALG FB
'@ 000,006

'@ N 07 "PART D 長い音"
   AR  DR  SR  RR  SL  TL  KS  ML  DT  AM  SSG-EG
'@ 031,006,000,000,015,027,000,000,000,000,000
'@ 031,031,000,000,000,031,000,000,000,000,000
'@ 031,031,000,000,000,024,000,000,000,000,000
'@ 031,031,005,006,001,004,000,000,000,000,000
   ALG FB
'@ 000,006

'@ N 07 "PART D 最後の2音"
   AR  DR  SR  RR  SL  TL  KS  ML  DT  AM  SSG-EG
'@ 031,006,000,000,015,027,000,000,000,000,000
'@ 031,031,000,000,000,031,000,000,000,000,000
'@ 031,031,000,000,000,024,000,000,000,000,000
'@ 031,031,005,004,001,005,000,000,000,000,000
   ALG FB
'@ 000,006




'@ P 0,".\wavs\hihat.wav"     , 8000, 95, OPN2X  ; c
'@ P 2,".\wavs\hihat+.wav"    , 8000, 95, OPN2X  ; c+
'@ P 1,".\wavs\kick.wav"      , 8000, 90, OPN2X  ; e
'@ P 3,".\wavs\tom-h.wav"     , 8000, 95, OPN2X  ; a
'@ P 4,".\wavs\tom-m.wav"     , 8000, 95, OPN2X  ; g
'@ P 5,".\wavs\tom-l.wav"     , 8000, 95, OPN2X  ; f
'@ P 6,".\wavs\snare2.wav"    , 8000, 95, OPN2X  ; d
'@ P 7,".\wavs\snare.wav"     , 8000, 95, OPN2X  ; d+
'@ P 32,".\wavs\kick2.wav"    , 8000, 90, OPN2X  ; b
'@ P 33,".\wavs\kick2+.wav"   , 8000, 90, OPN2X  ; a+

'@ P 10,".\wavs\o2c.wav"      , 8000, 95, OPN2X  ; 
'@ P 11,".\wavs\o2d.wav"      , 8000, 95, OPN2X  ; 
'@ P 12,".\wavs\o2e.wav"      , 8000, 95, OPN2X  ; 
'@ P 13,".\wavs\o2f.wav"      , 8000, 95, OPN2X  ; 
'@ P 14,".\wavs\o2g.wav"      , 8000, 95, OPN2X  ; 
'@ P 15,".\wavs\o2g#.wav"     , 8000, 95, OPN2X  ; 
'@ P 16,".\wavs\o2a.wav"      , 8000, 95, OPN2X  ; 
'@ P 17,".\wavs\o2a#.wav"     , 8000, 95, OPN2X  ; 
'@ P 18,".\wavs\o2b.wav"      , 8000, 95, OPN2X  ; 
'@ P 19,".\wavs\o3c.wav"      , 8000, 95, OPN2X  ; 
'@ P 20,".\wavs\o3d.wav"      , 8000, 95, OPN2X  ; 
'@ P 21,".\wavs\o3e.wav"      , 8000, 95, OPN2X  ; 
'@ P 22,".\wavs\o3f.wav"      , 8000, 95, OPN2X  ; 
'@ P 23,".\wavs\o3g.wav"      , 8000, 95, OPN2X  ; 
'@ P 24,".\wavs\o3g#.wav"     , 8000, 95, OPN2X  ; 
'@ P 25,".\wavs\o3a.wav"      , 8000, 95, OPN2X  ; 
'@ P 26,".\wavs\o3a#.wav"     , 8000, 95, OPN2X  ; 
'@ P 27,".\wavs\o3b.wav"      , 8000, 95, OPN2X  ; 

'@ P 30,".\wavs\o2a#+hihat+.wav", 8000, 95, OPN2X
'@ P 31,".\wavs\o2d+hihat+.wav", 8000, 95, OPN2X

        Oct    c c+  d d+ e   f,f+, g,g+, a,a+, b
'@ PM 0 , 4,0, 0, 2, 6, 7, 1, 5,  , 4,  , 3,33,32
'@ PM 0 , 2,0,10,  ,11,  ,12,13,  ,14,15,16,17,18
'@ PM 0 , 3,0,19,  ,20,  ,21,22,  ,23,24,25,26,27
'@ PM 0 , 1,0,  ,  ,31,  ,  ,  ,  ,  ,  ,  ,30,

'E01 T155



'E01 @0 v116 o6 l8 Q8
'E02 @0 v116 o5 l8 Q8
'E03 @0 v116 o5 l8 Q8
'E06 m1 v100 o4 l16 Q8 mon @0
'E10 m1 v100 o4 l8  Q8 mon @0
'E11 m1 v100 o2 l4  Q8 mon @0
'E12 m1 v100 o2 l4  Q8 mon @0

'S1 o4
'S2 o5


// イントロ
'E01 c2.c8c8^1 c2^8  @1cr  @0 c8^1  c2.c8c8^1 c2^8  @1cr  @0 c8^1
'E02 g2.g8a8^1 g+2^8 @1g+r @0 g8^1  g2.g8a8^1 g+2^8 @1g+r @0 g8^1
'E03 e2.e8f8^1 f2^8  @1fr  @0 e8^1  e2.e8f8^1 f2^8  @1fr  @0 e8^1
'E01 >c2.c8c8^1 c2^8  @1cr  @0 c8^1  c2.c8c8^1 @1ddd r4 dr c    r1
'E02 >g2.g8a8^1 g+2^8 @1g+r @0 g8^1  g2.g8a8^1 @1g+g+g+ r4 g+rg r1
'E03 >e2.e8f8^1 f2^8  @1fr  @0 e8^1  e2.e8f8^1 @1fff r4 fre     r1
'E06 eccceccceccceccc eccceccceccceccc eccceccceccceccc eccceccceccceccc
'E06 eccceccceccceccc eccceccceccceccc eccceccceccceccc eccceccc ecee ero3c8o4
'E06 eccceccceccceccc eccceccceccceccc eccceccceccceccc eccceccceccceccc
'E06 eccceccceccceccc eccceccceccceccc e8e8e8a8g8e8c8e8c8r8 a8eeg8eef8ee

'E10 c+<c>c<c>c<c>c<c> c<c>c<c>c<c>c<c> c<c>c<c>c<c>c<c> c<c>c<c>c<c>c<c>
'E10 c<c>c<c>c <c>c<c> c<c>c<c>c<c>c<c> c<c>c<c>c<c>c<c> c<c>d<c>c c16c16d8 r16g16^8
'E10  <c>d<c>c+<c>d<c> c+<c>d<c>c+<c>d<c> c+<c>d<c>c+<c>d<c> c+<c>d<c>c+<c>d<c>
'E10 c+<c>d<c>c+<c>d<c> c+<c>d<c>c+<c>d<c> dddr16a8.d4d4r8 r32a16.a16.r16 g16.g16.r16 f16.f8
'E11 cccccccc cccccccc cccccccc cccc co4ca8o3c8o2c4 
'E11 o4c+c+o2co4c+ o2co4c+o2co4c+o2co4c+o2co4c+ 
'E11 o2co4c+o2co4c+o2co4c+o2co4c+o2co4c+o2co4c+ 
'E11 o4c8c8c4.c4c4 r8r16a8a8g8g8f8f16

'E12 r1r1 r1r1 r1r1 r1rccr ccrc rcrc rcrc rcrc rcrc rcrc c8c8cr8ccr2r4r8

'S1 r1r1r1r1 r1r1r1r1 r1r1r1r1 r1r1r1r1
'S2 r1r1r1r1 r1r1r1r1 r1r1r1r1 r1r1r1r1



// メイン
'E01 L @2 o5 l4 v116
'E02   @5 o6 l8 v116
'E03   @5 o5 l8 v116
 
'E01 f.e8e2^2<ga>f.e8e2^2.r f.e8e2^2def1a-.g.f4 
'E01 f.e8e2^2<ga>f.e8e2^2.r f.e8e2^2def1a-.g.f4
'E01 e1^4<eg>d c+2.<b-a2^6g6f6 ef8d8^2^4.d8e8f4g8a2.g+>f2d2
'E01 e1^4<eg>d c+1^8e8c+8<b-8a8g8f8e8 d2.ef6e6f6g6f6g6a2.g8>@3g8^2 l16 ab-b>cc+de-el4

'E02 c4.<br4>d4^8cr4<b>cr4 c4.<b-r4>d4^8cr4<b->cr4 c4.<br4>d4^8cr4<b4>c4 c2r8d8e8d8^2c4d4
'E02 c4.<br4>d4^8cr4<b>cr4 c4.<b-r4>d4^8cr4<b->cr4 c4.<br4>d4^8cr4<b4>c4 c2r8d8e8d8^2c4d4
'E02 e1^2.d4c+1<b-2a4g4 >d1c2d2c1d2f2 
'E02 e1^2.d4c+1<b-2a4g4 >d1c2d2c2.cg^1

'E03 g4.gr4g4^8gr4ggr4     g4.gr4g4^8gr4ggr4       a4.ar4a4^8ar4a4a4     f2r8a4.a-2f4f4
'E03 g4.gr4g4^8gr4ggr4     g4.gr4g4^8gr4ggr4       a4.ar4a4^8ar4a4a4     f2r8a4.a-2f4f4
'E03 g1^2.^4e1e2e4e4 f1f2f2f1a-2a-2
'E03 g1^2.^4e1e2e4e4 f1f2f2f2.fg^1

'E06 o4 l16
'E10 o4 l8
'E11 o4 l4
'E12 o2 l4

'E06 eccceccceccceccc  eccceccceccceccc  eccceccceccceccc  eccceccceccceccc
'E06 eccceccceccceccc  eccceccceccceccc  eccceccceccceccc  eccceccceccceccc
'E06 eccceccceccceccc  eccceccceccceccc  eccceccceccceccc  eccceccceccceccc
'E06 eccceccceccceccc  eccceccceccceccc  eccceccceccceccc  eccceccceccced8d8

'E06  ccceccceccceccc  eccceccceccceccc  eccceccceccceccc  eccceccceccceccc
'E06 eccceccceccceccc  eccceccceccceccc  eccceccceccceccc  eccceccceccceccc
'E06 eccceccceccceccc  eccceccceccceccc  eccceccceccceccc  eccceccceccceccc
'E06 eccceccceccceccc  eccceccceccceccc  eccceccceccceccc  eccceccca8a8g8f8

'E10 c+<c>d<c>c+<c>d<c >c+<c>d<c>c+<c>d<c >c+<a+4a+4a+^8a+4  a+4a+4a+4a+^ 
'E10 8a8>d<a>c+<a>d<a >c+<a>d<a>c+<a>d<a >c+<f>d<f>c+<f>d<f >c+<f>d<f>c+<f>d<f>
'E10 c+<c>d<c>c+<c>d<c >c+<c>d<c>c+<c>d<c >c+<a+4a+4a+^8a+4  a+4a+4a+4a+^ 
'E10 8a8>d<a>c+<a>d<a >c+<a>d<a>c+<a>d<a >c+<f>d<f>c+<f>d<f >c+<f>d<f>c+<f>dd

'E10 e<e>d<e>c+<e>d<e  >c+<e>d<e>c+<e>d<e >c+<a>d<a>c+<a>d<a >c+<a>d<a>c+<a>d<a> 
'E10 c+<d4d4d4d4d4d4d4d4 f>d<f >c+<f>d<f  >c+<f>d<f>c+<f>d<f >c+<e>d<e>
'E10 c+<e>d<e>c+<e>d<e >c+<e>d<e>c+<a>d<a >c+<a>d<a>c+<a>d<a >c+<a>d<a >c+<d4d^
'E10 8d4d4d4d4d4d4f>d<f>c+<f>d<f>  c+<g>d<g+<a>a<b>b

'E11 r8r8c+o2co4c+o2co4c+o2co4 c+o2a+o4dc+dc+dc+d 
'E11 c+c+o2ao4c+o2ao4c+o2a o4c+o2fo4c+o2fo4c+o2fo4c+o2f
'E11 o4c+o2co4c+o2co4c+o2c o4c+o2c o4c+o2a+o4dc+dc+dc+d
'E11 c+c+o2ao4c+o2ao4c+o2a o4c+o2fo4c+o2fo4c+o2fo4c+o2f o4c+16c16c16c16

'E11 o4c+c+o2eo4c+ o2eo4c+o2eo4c+ o2ao4c+o2ao4c+ o2ao4c+o2ao4c+ 
'E11 o2do4dc+d c+dc+dc+c+ o2fo4c+o2fo4c+ o2fo4c+ o2eo4c+o2eo4c+o2eo4c+o2eo4c+
'E11 o2ao4c+o2ao4c+o2ao4c+o2ao4c+ o2do4dc+dc+dc+d c+c+o2fo4c+o2go4c+ r16a8g8g8e16

'E12 ccrcrcrc r<a+>a+<a+>a+<a+>a+<a+> aarararar frfrfrfr
'E12  crcrcrc r<a+>a+<a+> a+<a+>a+<a+> aarararar frfrfrf8>f8<
'E12 eererere rararara r<d>d<d>d<d>d<d> ffrfrfrf
'E12 rererere rararara r<d>d<d>d<d>d<d> ffrfrg+rr

'S1 r1r1r1r1 r1r1r1r1 r1r1r1r1 r1r1r1r1 r1r1r1r1 r1r1r1r1 r1r1r1r1 r1r1r1r1
'S2 r1r1r1r1 r1r1r1r1 r1r1r1r1 r1r1r1r1 r1r1r1r1 r1r1r1r1 r1r1r1r1 r1r1r1r1


// 8va
'E01 @4 o6 l4
'E02 @5 o6 l8
'E03 @5 o5 l8
 
'E01 f.e8e2^2<ga>f.e8e2^2.r f.e8e2^2def1a-.g.f4 
'E01 f.e8e2^2<ga>f.e8e2^2.r f.e8e2^2def1a-.g.f4
'E01 e1^4<eg>d c+2.<b-a2^6g6f6 ef8d8^2^4.d8e8f4g8a2.g+>f2d2
'E01 e1^4<eg>d c+1^8e8c+8<b-8a8g8f8e8 d2.ef6e6f6g6f6g6a2.g8>g8^1

'E02 c4.<br4>d4^8cr4<b>cr4 c4.<b-r4>d4^8cr4<b->cr4 c4.<br4>d4^8cr4<b4>c4 c2r8d8e8d8^2c4d4
'E02 c4.<br4>d4^8cr4<b>cr4 c4.<b-r4>d4^8cr4<b->cr4 c4.<br4>d4^8cr4<b4>c4 c2r8d8e8d8^2c4d4
'E02 e1^2.d4c+1<b-2a4g4 >d1c2d2c1d2f2 
'E02 e1^2.d4c+1<b-2a4g4 >d1c2d2c2.cg^1

'E03 g4.gr4g4^8gr4ggr4     g4.gr4g4^8gr4ggr4       a4.ar4a4^8ar4a4a4     f2r8a4.a-2f4f4
'E03 g4.gr4g4^8gr4ggr4     g4.gr4g4^8gr4ggr4       a4.ar4a4^8ar4a4a4     f2r8a4.a-2f4f4
'E03 g1^2.^4e1e2e4e4 f1f2f2f1a-2a-2
'E03 g1^2.^4e1e2e4e4 f1f2f2f2.fg^1

'E06 o4 l16
'E10 o4 l8
'E11 o4 l4
'E12 o2 l4

'E06 eccceccceccceccc  eccceccceccceccc  eccceccceccceccc  eccceccceccceccc
'E06 eccceccceccceccc  eccceccceccceccc  eccceccceccceccc  eccceccceccceccc
'E06 eccceccceccceccc  eccceccceccceccc  eccceccceccceccc  eccceccceccceccc
'E06 eccceccceccceccc  eccceccceccceccc  eccceccceccceccc  eccceccceccced8d8

'E06  ccceccceccceccc  eccceccceccceccc  eccceccceccceccc  eccceccceccceccc
'E06 eccceccceccceccc  eccceccceccceccc  eccceccceccceccc  eccceccceccceccc
'E06 eccceccceccceccc  eccceccceccceccc  eccceccceccceccc  eccceccceccceccc
'E06 eccceccceccceccc  eccceccceccceccc  eccceccceccceccc  eccceccca8a8g8f8

'E10 c+<c>d<c>c+<c>d<c >c+<c>d<c>c+<c>d<c >c+<a+4a+4a+^8a+4  a+4a+4a+4a+^ 
'E10 8a8>d<a>c+<a>d<a >c+<a>d<a>c+<a>d<a >c+<f>d<f>c+<f>d<f >c+<f>d<f>c+<f>d<f>
'E10 c+<c>d<c>c+<c>d<c >c+<c>d<c>c+<c>d<c >c+<a+4a+4a+^8a+4  a+4a+4a+4a+^ 
'E10 8a8>d<a>c+<a>d<a >c+<a>d<a>c+<a>d<a >c+<f>d<f>c+<f>d<f >c+<f>d<f>c+<f>dd

'E10 e<e>d<e>c+<e>d<e  >c+<e>d<e>c+<e>d<e >c+<a>d<a>c+<a>d<a >c+<a>d<a>c+<a>d<a> 
'E10 c+<d4d4d4d4d4d4d4d4 f>d<f >c+<f>d<f  >c+<f>d<f>c+<f>d<f >c+<e>d<e>
'E10 c+<e>d<e>c+<e>d<e >c+<e>d<e>c+<a>d<a >c+<a>d<a>c+<a>d<a >c+<a>d<a >c+<d4d^
'E10 8d4d4d4d4d4d4f>d<f>c+<f>d<f>  c+<g>d<g+<a>a<b>b

'E11 r8r8c+o2co4c+o2co4c+o2co4 c+o2a+o4dc+dc+dc+d 
'E11 c+c+o2ao4c+o2ao4c+o2a o4c+o2fo4c+o2fo4c+o2fo4c+o2f
'E11 o4c+o2co4c+o2co4c+o2c o4c+o2c o4c+o2a+o4dc+dc+dc+d
'E11 c+c+o2ao4c+o2ao4c+o2a o4c+o2fo4c+o2fo4c+o2fo4c+o2f o4c+16c16c16c16

'E11 o4c+c+o2eo4c+ o2eo4c+o2eo4c+ o2ao4c+o2ao4c+ o2ao4c+o2ao4c+ 
'E11 o2do4dc+d c+dc+dc+c+ o2fo4c+o2fo4c+ o2fo4c+ o2eo4c+o2eo4c+o2eo4c+o2eo4c+
'E11 o2ao4c+o2ao4c+o2ao4c+o2ao4c+ o2do4dc+dc+dc+d c+c+o2fo4c+o2go4c+ r16a8g8g8e16

'E12 ccrcrcrc r<a+>a+<a+>a+<a+>a+<a+> aarararar frfrfrfr
'E12  crcrcrc r<a+>a+<a+> a+<a+>a+<a+> aarararar frfrfrf8>f8<
'E12 eererere rararara r<d>d<d>d<d>d<d> ffrfrfrf
'E12 rererere rararara r<d>d<d>d<d>d<d> ffrfrg+rr

'S1 r1r1r1r1 r1r1r1r1 r1r1r1r1 r1r1r1r1 r1r1r1r1 r1r1r1r1 r1r1r1r1 r1r1r1r1
'S2 r1r1r1r1 r1r1r1r1 r1r1r1r1 r1r1r1r1 r1r1r1r1 r1r1r1r1 r1r1r1r1 r1r1r1r1

// Part D
'E01 o6 @6 l8 Q4
'E02 o6 @6 l8 Q4 v118
'E03 o6 @6 l8 Q4

'E01 cc<b>cr2 r4.<ab>c4. cc<b>cr2 r4.<ab>c4. ddcdr2r4.<b>cd4. cc<b>cr2 r1
'E01 cc<b>cr2 r4.<ab>c4. cc<b>cr2 r4.<ab>c4. ddcdr2r4.<b>cd4. cc<b>cr2 r1
'E02 aagar2 r1 aagar2 r1 bbabr2 r1 aagar2 r1
'E02 aagar2 r1 aagar2 r1 bbabr2 r1 aagar2 r1
'E03 eeder2 r4.eee4. ffefr2 r4.fff4. ggfgr2 r4. ggg4. eede r2 r1
'E03 eeder2 r4.eee4. ffefr2 r4.fff4. ggfgr2 r4. ggg4. eede r2 r1
'S1 r1r1r1r1r1r1r1r1
'S2 r1r1r1r1r1r1r1r1
'S1 r1r1r1r1r1r1r1r1
'S2 r1r1r1r1r1r1r1r1


'E01 eeder2r1 eeder2r1 ddcdr2r4 @7Q8 c4<b4>c4 @6Q4 cc<b>cr2 r1
'E01 eeder2r1 eeder2r1 ddcdr2r4 @7Q8 c4<b4>c4 @6Q4 cc<b>cr2 r8f8f8r8g8@7Q8g4.
'E02 o7 cc<b>cr2 r1 cc<b>cr2 r1 <bbabr2 r1 aagar2r1
'E02 o7 cc<b>cr2 r1 cc<b>cr2 r1 <bbabr2 r1 aagar2 ra8a8r8b8@7Q8b8.
'E03 aagar2r1 aagar2r1 ggfgr2r4 @7Q8 g4g4g4 @6Q4 eeder2r1
'E03 aagar2r1 aagar2r1 ggfgr2r4 @7Q8 g4g4g4 @6Q4 eeder2 r8f8f8r8g8@7Q8g4.

'S1 o4l8 v6aaa v8aaaaaa v10cdegedcv6cccv8ccccccv10g<a>ce<a>cd v6d2v8d2d4v10c4<b4>c4<b16r16a16r16g16r16a16r16r2r1
'S2 o5l8v2 a1^8cdegedc^1^8g<a>ce<a>cd^1^4c4<b4>c4<b16r16a16r16g16r16a16r16r2r1
'S1 o4l8 v6aaa v8aaaaaa v10cdegedcv6cccv8ccccccv10g<a>ce<a>cd v6d2v8d2d4v10c4<b4>c4<b16r16a16r16g16r16a16r16r2r1
'S2 o5l8   a1^8cdegedc^1^8g<a>ce<a>cd^1^4c4<b4>c4<b16r16a16r16g16r16a16r16r2r1

'E06 o4 l16
'E10 o4 l8
'E11 o2 l8
'E12 o3 l8

'E06 b8ca+  b8a+c d+8cc c+8cc a+8ca+ c+8a+c c+8a+b d+8cc
'E06 a+8ca+ b8a+c d+8cc c+8cc a+8ca+ c+8a+c c+8a+b d+8cc
'E06 b8ca+  b8a+c d+8cc c+8cc a+8ca+ c+8a+c c+8a+b d+8cc
'E06 a+8ca+ b8a+c d+8cc c+8cc a+8ca+ c+8a+c c+8a+b d+8cc

'E06 b8ca+  b8a+c d+8cc c+8cc a+8ca+ c+8a+c c+8a+b d+8cc
'E06 a+8ca+ b8a+c d+8cc c+8cc a+8ca+ c+8a+c c+8a+b d+8cc
'E06 a+8ca+ b8a+c d+8cc c+8cc a+8ca+ c+8a+c c+8a+b d+8cc
'E06 a+8ca+ b8a+c d+8cc c+8cc a+bbbd+8a+b   b8a+cd+8cc

'E06 b8ca+  b8a+c d+8cc c+8cc a+8ca+ c+8a+c c+8a+b d+8cc
'E06 a+8ca+ b8a+c d+8cc c+8cc a+8ca+ c+8a+c c+8a+b d+8cc
'E06 b8ca+  b8a+c d+8cc c+8cc a+8ca+ c+8a+c c+8a+b d+8cc
'E06 a+8ca+ b8a+c d+8cc c+8cc a+8ca+ c+8a+c c+8a+b d+8cc

'E06 b8ca+  b8a+c d+8cc c+8cc a+8ca+ c+8a+c c+8a+b d+8cc
'E06 a+8ca+ b8a+c d+8cc c+8cc a+8ca+ c+8a+c c+8a+b d+8cc
'E06 a+8ca+ b8a+c d+8cc c+8cc a+8ca+ c+8a+c c+8a+b d+8cc
'E06 a+8ca+ b8a+c d+8cc c+8cc c8a+8a+8r8a+8a+8a8g8

'E10 c+<a>c+cc+<a<a>a>c+<a<a>>c<<a>>c16c16c16c16 
'E10 <a>c+<f>c+ cc+<f<f>> r8c+<f<fr8 f>>r16c16c16c16<f>
'E10 c+<g>c+c c+<g<g>g> c+<g<g>>c+ <<g>>c16c16c16c16<g> c+<a>c+cc+ <a<a>a>c+ <a<a>>c<<a>>c16c16c16c16<a>

'E10 c+<a>c+cc+<a<a>a>c+<a<a>>c<<a>>c16c16c16c16 
'E10 <a>c+<f>c+ cc+<f<f>> r8c+<f<fr8 f>>r16c16c16c16<f>
'E10 c+<g>c+c c+<g<g>g> c+<g<g>>c+ <<g>>c16c16c16c16<g> c+<a>c+cc+ <a<a>a>c+ c16c16c+8c16c16c+8c8c16a+16<a>

'E10 c+<a>c+cc+<a<a>a>c+<a<a>>c<<a>>c16c16c16c16 
'E10 <a>c+<f>c+ cc+<f<f>> r8c+<f<fr8 f>>r16c16c16c16<f>
'E10 c+<g>c+c c+<g<g>g> c+<g<g>>c+ <<g>>c16c16c16c16<g> c+<a>c+cc+ <a<a>a>c+ <a<a>>c<<a>>c16c16c16c16<a>

'E10 c+<a>c+cc+<a<a>a>c+<a<a>>c<<a>>c16c16c16c16 
'E10 <a>c+<f>c+ cc+<f<f>> r8c+<f<fr8 f>>r16c16c16c16<f>
'E10 c+<g>c+c c+<g<g>g> c+<g<g>>c+ <<g>>c16c16c16c16<g> c+<a>c+cc+ <a<a>a>r8 d+8d+8r8d+8d+8r16ag16

'E11 a.o4c16o2a>a<arrr ar16o4c16o3rara<ar f.o4c16o2f4f4r>f<fr16 o4c8.c4c <<f4 g.o4c16o2g>g<grrr 
'E11 g.o4c.o3grg<g4 a.o4c16o2a>a<arrr ar16o4c16o3rara<ar 
'E11 a.o4c16o2a>a<arrr ar16o4c16o3rara<ar f.o4c16o2f4f4r>f<fr16 o4c8.c4c <<f4 g.o4c16o2g>g<grrr 
'E11 g.o4c.o3grg<g4 a.o4c16o2a>a<arrr o2a>a<a>a<a>a<ar

'E11 a.o4c16o2a>a<arrr ar16o4c16o3rara<ar f.o4c16o2f4f4r>f<fr16 o4c8.c4c <<f4 g.o4c16o2g>g<grrr 
'E11 g.o4c.o3grg<g4 a.o4c16o2a>a<arrr ar16o4c16o3rara<ar 
'E11 a.o4c16o2a>a<arrr ar16o4c16o3rara<ar f.o4c16o2f4f4r>f<fr16 o4c8.c4c <<f4 g.o4c16o2g>g<grrr 
'E11 g.o4c.o3grg<g4 a.o4c16o2a>a<arrr ro2f4.gg4r

'E12 r1r1 r4rf4rr4 r4r8f4f4r8 r1r1r1r1r1r1 r4rf4rr4 r4r8f4f4r8 r1r1r1r2r4r16o4c+8.o3 
'E12 r1r1 r4rf4rr4 r4r8f4f4r8 r1r1r1r1r1r1 r4rf4rr4 r4r8f4f4r8 r1r1r1r4f4r2


